<?xml version="1.0" standalone="no"?>
<!DOCTYPE svg PUBLIC "-//W3C//DTD SVG 20010904//EN"
 "http://www.w3.org/TR/2001/REC-SVG-20010904/DTD/svg10.dtd">
<svg version="1.0" xmlns="http://www.w3.org/2000/svg"
 width="151.000000pt" height="44.000000pt" viewBox="0 0 151.000000 44.000000"
 preserveAspectRatio="xMidYMid meet">

<g transform="translate(0.000000,44.000000) scale(0.100000,-0.100000)"
fill="#000000" stroke="none">
<path d="M558 388 c5 -7 45 -96 88 -197 l77 -183 18 34 18 35 -64 148 c-36 81
-65 154 -65 161 0 10 -13 14 -41 14 -32 0 -39 -3 -31 -12z"/>
<path d="M885 205 l0 -195 45 0 c27 0 40 4 32 9 -10 6 -12 50 -10 194 l3 187
-35 0 -35 0 0 -195z"/>
<path d="M367 360 c-13 -29 -13 -40 -2 -65 7 -16 36 -83 64 -148 28 -66 49
-123 45 -128 -3 -5 19 -9 48 -9 45 1 51 3 36 13 -9 8 -49 87 -88 178 -93 212
-86 201 -103 159z"/>
<path d="M1102 357 c-11 -31 -8 -43 48 -173 34 -76 62 -147 63 -156 1 -14 11
-18 47 -18 25 0 40 4 34 8 -6 4 -47 89 -90 190 -43 100 -81 182 -84 182 -3 0
-11 -15 -18 -33z"/>
<path d="M215 20 c-3 -5 -1 -10 4 -10 6 0 11 5 11 10 0 6 -2 10 -4 10 -3 0 -8
-4 -11 -10z"/>
</g>
</svg>
